<?xml version="1.0" encoding="iso-8859-1"?>
<!-- Generator: Adobe Illustrator 17.0.0, SVG Export Plug-In . SVG Version: 6.00 Build 0)  -->
<!DOCTYPE svg PUBLIC "-//W3C//DTD SVG 1.1//EN" "http://www.w3.org/Graphics/SVG/1.1/DTD/svg11.dtd">
<svg version="1.1" id="Layer_1" xmlns="http://www.w3.org/2000/svg" xmlns:xlink="http://www.w3.org/1999/xlink" x="0px" y="0px"
	 width="747px" height="358px" viewBox="0 0 747 358" style="enable-background:new 0 0 747 358;" xml:space="preserve">
<g>
	<defs>
		<rect id="SVGID_1_" x="-4641.276" y="367.88" width="2020.281" height="1107.644"/>
	</defs>
	<clipPath id="SVGID_2_">
		<use xlink:href="#SVGID_1_"  style="overflow:visible;"/>
	</clipPath>
	<g transform="matrix(1 0 0 1 2.133214e-004 3.604713e-006)" style="clip-path:url(#SVGID_2_);">
		
			<image style="overflow:visible;" width="7370" height="4916" xlink:href="../ReiwaHouse_logo_final_Folder/Links/shutterstock_253255078.jpg"  transform="matrix(0.2733 0 0 0.2733 -4644.0479 367.5935)">
		</image>
	</g>
</g>
<rect x="-775.064" y="1216.445" style="fill:#ED1C24;" width="36.522" height="118.272"/>
<g>
	
		<line style="fill:none;stroke:#6D6E71;stroke-width:2.2999;stroke-miterlimit:10;" x1="-875.827" y1="895.284" x2="-757.911" y2="1046.907"/>
	
		<line style="fill:none;stroke:#6D6E71;stroke-width:2.2999;stroke-miterlimit:10;" x1="-639.959" y1="895.284" x2="-757.874" y2="1046.907"/>
	
		<line style="fill:none;stroke:#6D6E71;stroke-width:2.2999;stroke-miterlimit:10;" x1="-758.266" y1="925.562" x2="-638.639" y2="1077.326"/>
	
		<line style="fill:none;stroke:#6D6E71;stroke-width:2.2999;stroke-miterlimit:10;" x1="-757.293" y1="924.854" x2="-875.663" y2="1077.006"/>
</g>
<g style="opacity:0.46;">
	<path style="fill:#FFFFFF;" d="M-3958.634,1157.656v19.31c-2.546-1.691-5.177-3.256-7.818-4.808
		c-24.171-14.207-52.183-22.558-82.146-22.993c-1.043-0.023-2.044-0.148-3.098-0.148c-1.679,0-3.269,0.179-4.929,0.224
		c-1.707,0.057-3.408,0.127-5.101,0.232c-22.242,1.202-42.51,6.416-60.807,15.639c-1.766,0.833-3.501,1.717-5.232,2.612
		c-0.472,0.263-0.973,0.472-1.445,0.739c-53.038,28.067-89.194,83.781-89.194,147.965c0,49.608,21.608,94.154,55.901,124.796
		c28.901,29.43,65.77,44.332,110.807,44.332c17.309,0,33.25-2.979,47.966-8.638c16.187-4.768,31.355-11.899,45.096-21.027v24.319
		c33,11.648,60.868,5.524,77.244-0.868v-322.874C-3914.492,1144.928-3942.391,1151.234-3958.634,1157.656 M-4050.329,1411.308
		c-50.728,0-91.854-41.125-91.854-91.853c0-50.73,41.126-91.853,91.854-91.853s91.853,41.123,91.853,91.853
		C-3958.476,1370.183-3999.601,1411.308-4050.329,1411.308"/>
	<path style="fill:#FFFFFF;" d="M-4294.263,1162.142c-16.36-7.409-34.469-11.636-53.599-11.636c-19.433,0-37.809,4.375-54.374,12.01
		v0.222c-14.031,6.531-26.703,15.481-37.488,26.311c-11.072-11.142-24.111-20.336-38.622-26.908
		c-16.36-7.409-34.471-11.636-53.598-11.636c-15.555,0-30.369,2.926-44.175,7.965c-3.303,1.204-6.6,2.425-9.775,3.876v-7.666
		c-32.768-11.076-60.335-4.742-76.372,1.637v324.729c32.951,10.881,60.587,4.204,76.372-2.22v-91.96h0.014v-105.225
		c0.02-29.774,24.159-53.904,53.937-53.904c27.788,0,50.65,21.019,53.598,48.022v11.829v99.652v92.754
		c32.226,11.622,59.666,6.238,76.372,0.037v-93.255c0.061,0.027,0.117,0.063,0.18,0.09V1281.95c0.02-0.412,0.061-0.817,0.061-1.233
		c0-0.053-0.006-0.103-0.006-0.154c0.597-29.27,24.468-52.825,53.878-52.825c27.79,0,50.65,21.019,53.599,48.022v11.829v99.652
		v93.16c32.513,11.341,60.007,5.47,76.372-0.833v-194.071c0.059-1.598,0.242-3.166,0.242-4.779c0-1.613-0.183-3.18-0.242-4.779
		C-4219.736,1225.216-4250.495,1181.961-4294.263,1162.142"/>
</g>
<text transform="matrix(1 0 0 1 -4178.3403 1021.1416)"><tspan x="0" y="0" style="fill:#6D6E71; font-family:'SVN-GothamBold'; font-size:179.1262; letter-spacing:7;">P</tspan><tspan x="102.46" y="0" style="fill:#6D6E71; font-family:'SVN-GothamBold'; font-size:179.1262; letter-spacing:6;">R</tspan><tspan x="205.814" y="0" style="fill:#6D6E71; font-family:'SVN-GothamBold'; font-size:179.1262; letter-spacing:7;">OPOSA</tspan><tspan x="781.702" y="0" style="fill:#6D6E71; font-family:'SVN-GothamBold'; font-size:179.1262;">L</tspan></text>
<g>
	
		<text transform="matrix(1 0 0 1 -3989.9041 847.0673)" style="fill:#6D6E71; font-family:'SVN-GothamBold'; font-size:112.6593; letter-spacing:-2;">Reiwa House</text>
</g>
<g>
	
		<text transform="matrix(1 0 0 1 -843.8817 648.1572)" style="fill:#6D6E71; font-family:'SVN-GothamBold'; font-size:85.4921; letter-spacing:-1;">logo</text>
</g>
<line style="fill:none;stroke:#6D6E71;stroke-width:8;stroke-miterlimit:10;" x1="-3881.399" y1="1078.608" x2="-3384.949" y2="1078.608"/>
<g>
	<defs>
		<rect id="SVGID_3_" x="-2438.365" y="525.354" width="1365.19" height="809.362"/>
	</defs>
	<clipPath id="SVGID_4_">
		<use xlink:href="#SVGID_3_"  style="overflow:visible;"/>
	</clipPath>
	<g transform="matrix(1 0 0 1 -2.103858e-006 6.145798e-006)" style="clip-path:url(#SVGID_4_);">
		
			<image style="overflow:visible;" width="3000" height="1800" xlink:href="../ReiwaHouse_logo_final_Folder/Links/shutterstock_703814236.jpg"  transform="matrix(0.4703 0 0 0.4703 -2484.1445 506.1678)">
		</image>
	</g>
</g>
<g>
	<text transform="matrix(1 0 0 1 -875.5517 770.5303)"><tspan x="0" y="0" style="fill:#A7A9AC; font-family:'SVN-GothamLight'; font-size:29.8829;">Support your lives</tspan><tspan x="-27.043" y="35.859" style="fill:#A7A9AC; font-family:'SVN-GothamLight'; font-size:29.8829;">Support your business</tspan></text>
</g>
<g>
	<defs>
		<rect id="SVGID_5_" x="961.695" y="372.645" width="757.975" height="1105.73"/>
	</defs>
	<clipPath id="SVGID_6_">
		<use xlink:href="#SVGID_5_"  style="overflow:visible;"/>
	</clipPath>
	<g transform="matrix(1 0 0 1 -2.461093e-008 -1.509026e-006)" style="clip-path:url(#SVGID_6_);">
		
			<image style="overflow:visible;" width="3600" height="2400" xlink:href="../ReiwaHouse_logo_final_Folder/Links/mk1.jpg"  transform="matrix(0.596 0 0 0.596 138.1405 145.2158)">
		</image>
	</g>
</g>
<g>
	<path style="fill:#1B75BC;" d="M376.061,199.802h47.937c0,0,0.034-28.343,0.09-48.811L498.9,92.503V30.729L417.74,94.18
		c-1.573-4.344-3.316-8.177-5.096-11.527l-0.011,0.006c-0.293-0.489-0.57-0.977-0.879-1.466
		c-14.98-24.685-42.271-41.066-73.355-40.658c-46.374,0.618-83.32,39.177-83.32,85.567v73.701l47.937-23.677v-50.414
		c0-20.484,16.772-37.63,37.24-37.24c19.849,0.39,35.806,16.592,35.806,36.523V199.802z"/>
	<path style="fill:#ED1C24;" d="M498.9,199.802v-64.314c-35.813,0.039-64.906,28.684-65.706,64.314H498.9z"/>
	<path style="fill:#231F20;" d="M128.063,282.725v-0.202c0-6.682-2.126-12.25-6.074-16.198c-4.657-4.657-11.642-7.188-20.653-7.188
		H68.94l9.124,14.09l21.956-0.018c7.593,0,12.25,3.442,12.25,10.124v0.202c0,5.973-4.353,10.023-11.946,10.023L68.94,293.57v36.433
		h15.591v-22.677h12.25l15.186,22.677h18.223l-17.312-25.309C121.888,301.353,128.063,294.165,128.063,282.725z"/>
	<rect x="188.106" y="259.137" style="fill:#231F20;" width="15.59" height="70.866"/>
	<polygon style="fill:#231F20;" points="148.453,316.134 148.453,301.252 177.302,301.252 171.137,287.382 148.453,287.382 
		148.453,273.006 183.632,273.006 177.468,259.137 132.964,259.137 132.964,330.003 183.693,330.003 177.529,316.134 	"/>
	<polygon style="fill:#231F20;" points="678.873,316.134 649.797,316.134 649.797,301.252 678.646,301.252 672.481,287.382 
		649.797,287.382 649.797,273.006 684.976,273.006 678.812,259.137 634.308,259.137 634.308,330.003 685.037,330.003 	"/>
	<polygon style="fill:#231F20;" points="304.923,259.1 304.938,259.137 298.267,259.137 283.587,307.124 267.693,258.934 
		254.329,258.934 238.435,307.124 223.755,259.137 207.051,259.137 231.247,330.51 244.813,330.51 260.809,284.142 276.804,330.51 
		290.37,330.51 310.126,272.231 323.416,305.772 327.893,316.681 304.241,316.681 299.68,330.003 333.36,330.003 334.803,330.003 
		349.66,330.003 319.288,259.1 	"/>
	<polygon style="fill:#231F20;" points="411.675,286.888 383.068,286.888 383.068,258.985 367.555,258.985 367.555,329.496 
		383.068,329.496 383.068,301.191 411.675,301.191 411.675,329.496 427.187,329.496 427.187,258.985 411.675,258.985 	"/>
	<path style="fill:#231F20;" d="M468.925,257.777c-21.758,0-37.572,16.419-37.572,36.465v0.201
		c0,20.045,15.613,36.263,37.371,36.263s37.572-16.419,37.572-36.464v-0.202C506.296,273.994,490.683,257.777,468.925,257.777z
		 M490.078,294.442c0,12.088-8.663,21.959-21.154,21.959c-12.491,0-21.355-10.073-21.355-22.16v-0.202
		c0-12.088,8.663-21.959,21.153-21.959s21.355,10.073,21.355,22.161V294.442z"/>
	<path style="fill:#231F20;" d="M556.775,299.378c0,11.181-5.742,16.923-15.211,16.923c-9.468,0-15.21-5.943-15.21-17.427v-39.889
		h-15.512v40.292c0,20.751,11.584,31.327,30.521,31.327c18.938,0,30.924-10.476,30.924-31.831v-39.788h-15.512V299.378z"/>
	<path style="fill:#231F20;" d="M607.074,287.29c-12.188-3.123-15.21-4.634-15.21-9.267v-0.201c0-3.425,3.123-6.145,9.066-6.145
		c5.943,0,12.088,2.619,18.333,6.95l8.058-11.685c-7.152-5.742-15.915-8.965-26.19-8.965c-14.404,0-24.679,8.462-24.679,21.254
		v0.201c0,14.001,9.167,17.93,23.369,21.556c11.785,3.022,14.203,5.037,14.203,8.965v0.202c0,4.13-3.828,6.648-10.174,6.648
		c-8.059,0-14.707-3.324-21.053-8.562l-9.167,10.979c8.462,7.555,19.24,11.282,29.917,11.282c15.21,0,25.888-7.857,25.888-21.859
		v-0.202C629.436,296.155,621.378,291.018,607.074,287.29z"/>
</g>
<g>
	<g>
		<path style="fill:#1B75BC;" d="M101.636,1230.587h25.335c0,0,0.018-14.979,0.048-25.796l39.538-30.911v-32.647l-42.893,33.534
			c-0.831-2.296-1.753-4.322-2.693-6.092l-0.006,0.003c-0.155-0.259-0.301-0.516-0.465-0.775
			c-7.917-13.046-22.34-21.703-38.768-21.488c-24.508,0.327-44.034,20.705-44.034,45.222v38.951l25.335-12.513v-26.644
			c0-10.826,8.864-19.887,19.681-19.681c10.49,0.206,18.924,8.769,18.924,19.302V1230.587z"/>
		<path style="fill:#ED1C24;" d="M166.555,1230.587v-33.99c-18.927,0.02-34.303,15.159-34.725,33.99H166.555z"/>
	</g>
	<g>
		<path style="fill:#231F20;" d="M243.052,1185.255v-0.129c0-4.246-1.351-7.784-3.86-10.293c-2.959-2.959-7.398-4.568-13.124-4.568
			h-20.586l5.798,8.953l13.952-0.011c4.825,0,7.784,2.187,7.784,6.433v0.129c0,3.796-2.766,6.369-7.591,6.369l-19.943,0.008v23.151
			h9.907v-14.41h7.784l9.65,14.41h11.58l-11.001-16.083C239.128,1197.092,243.052,1192.524,243.052,1185.255z"/>
		<rect x="281.206" y="1170.265" style="fill:#231F20;" width="9.907" height="45.032"/>
		<polygon style="fill:#231F20;" points="256.009,1206.484 256.009,1197.027 274.341,1197.027 270.423,1188.214 256.009,1188.214 
			256.009,1179.079 278.363,1179.079 274.446,1170.265 246.166,1170.265 246.166,1215.297 278.402,1215.297 274.485,1206.484 		"/>
		<polygon style="fill:#231F20;" points="593.064,1206.484 574.588,1206.484 574.588,1197.027 592.92,1197.027 589.002,1188.214 
			574.588,1188.214 574.588,1179.079 596.942,1179.079 593.025,1170.265 564.745,1170.265 564.745,1215.297 596.981,1215.297 		"/>
		<polygon style="fill:#231F20;" points="355.438,1170.242 355.447,1170.265 351.208,1170.265 341.879,1200.759 331.779,1170.137 
			323.288,1170.137 313.188,1200.759 303.86,1170.265 293.245,1170.265 308.62,1215.619 317.241,1215.619 327.405,1186.155 
			337.569,1215.619 346.19,1215.619 358.744,1178.586 367.189,1199.899 370.034,1206.832 355.004,1206.832 352.106,1215.297 
			373.508,1215.297 374.425,1215.297 383.865,1215.297 364.566,1170.242 		"/>
		<polygon style="fill:#231F20;" points="423.273,1187.9 405.095,1187.9 405.095,1170.169 395.237,1170.169 395.237,1214.975 
			405.095,1214.975 405.095,1196.989 423.273,1196.989 423.273,1214.975 433.13,1214.975 433.13,1170.169 423.273,1170.169 		"/>
		<path style="fill:#231F20;" d="M459.652,1169.401c-13.826,0-23.875,10.433-23.875,23.171v0.128
			c0,12.738,9.921,23.043,23.747,23.043s23.875-10.433,23.875-23.171v-0.128C483.4,1179.706,473.479,1169.401,459.652,1169.401z
			 M473.094,1192.7c0,7.681-5.505,13.954-13.442,13.954c-7.937,0-13.57-6.401-13.57-14.082v-0.128
			c0-7.681,5.505-13.954,13.442-13.954s13.57,6.401,13.57,14.082V1192.7z"/>
		<path style="fill:#231F20;" d="M515.477,1195.837c0,7.105-3.649,10.754-9.666,10.754c-6.017,0-9.665-3.776-9.665-11.074v-25.348
			h-9.857v25.604c0,13.186,7.361,19.907,19.395,19.907c12.034,0,19.651-6.657,19.651-20.227v-25.284h-9.857V1195.837z"/>
		<path style="fill:#231F20;" d="M547.439,1188.156c-7.745-1.984-9.665-2.944-9.665-5.889v-0.128c0-2.176,1.984-3.905,5.761-3.905
			c3.777,0,7.681,1.664,11.65,4.417l5.121-7.425c-4.545-3.649-10.113-5.697-16.642-5.697c-9.153,0-15.682,5.377-15.682,13.506v0.128
			c0,8.897,5.825,11.394,14.85,13.698c7.489,1.921,9.025,3.201,9.025,5.697v0.128c0,2.625-2.432,4.225-6.465,4.225
			c-5.121,0-9.346-2.113-13.378-5.441l-5.825,6.977c5.377,4.801,12.226,7.169,19.011,7.169c9.665,0,16.45-4.993,16.45-13.89v-0.128
			C561.649,1193.788,556.529,1190.524,547.439,1188.156z"/>
	</g>
</g>
</svg>
